<svg width="57" height="56" viewBox="0 0 57 56" fill="none" xmlns="http://www.w3.org/2000/svg">
<path fill-rule="evenodd" clip-rule="evenodd" d="M19.012 15.6083C17.2269 15.6083 15.906 17.162 15.9652 18.847C16.0219 20.4658 15.9482 22.5624 15.4174 24.2722C14.8848 25.9868 13.9846 27.0733 12.514 27.2128V28.7873C13.9846 28.927 14.8848 30.013 15.4174 31.7278C15.9482 33.4376 16.0219 35.5342 15.9651 37.153C15.9059 38.8377 17.2268 40.3917 19.0122 40.3917H37.3033C39.0884 40.3917 40.409 38.838 40.3499 37.153C40.2931 35.5342 40.3668 33.4376 40.8976 31.7278C41.4302 30.013 42.3282 28.9266 43.7989 28.7873V27.2128C42.3283 27.073 41.4303 25.987 40.8976 24.2722C40.3668 22.5627 40.2931 20.4658 40.3499 18.847C40.409 17.1623 39.0884 15.6083 37.3033 15.6083H19.0117H19.012ZM33.7241 30.8641C33.7241 33.1843 31.9838 34.5914 29.0958 34.5914H24.1795C24.0389 34.5914 23.904 34.5358 23.8046 34.4369C23.7051 34.338 23.6493 34.2039 23.6493 34.0641V21.936C23.6493 21.7962 23.7051 21.662 23.8046 21.5632C23.904 21.4643 24.0389 21.4087 24.1795 21.4087H29.0678C31.4759 21.4087 33.0564 22.7059 33.0564 24.6975C33.0564 26.0954 31.9932 27.3468 30.6387 27.566V27.639C32.4826 27.8401 33.7241 29.11 33.7241 30.8641ZM28.5597 23.0803H25.7565V27.0178H28.1175C29.9427 27.0178 30.949 26.2869 30.949 24.9805C30.9489 23.7563 30.0836 23.0803 28.5597 23.0803ZM25.7565 28.5801V32.9193H28.6629C30.5632 32.9193 31.5697 32.161 31.5697 30.736C31.5697 29.3109 30.5349 28.5798 28.5407 28.5798H25.7565V28.5801Z" fill="#7952B3"/>
</svg>
